<svg class="border shadow-md" viewBox="0 0 1351.68 760.32" style="width: 1351.68px; height: 760.32px;" xmlns="http://www.w3.org/2000/svg" preserveAspectRatio="none"><rect class="bg" id="bg" x="0" y="0" width="1351.68" height="760.32" fill="#F6F4F0"/><path d="M -10 -76.03200000000001 S -337.92 -137.03&#xA;                0.00 -76.03 337.92 -114.05&#xA;                675.84 -76.03 1013.76 -114.05&#xA;                1351.68 -76.03 1689.60 -123.03&#xA;                2027.52 -76.03 V 760.32 H 0 V -76.03 Z" fill="#1BA4FF"/><path d="M -10 0 S -337.92 -38.02&#xA;                0.00 0.00 337.92 -74.00&#xA;                675.84 0.00 1013.76 -38.02&#xA;                1351.68 0.00 1602.52 -38.02&#xA;                2027.52 0.00 V 760.32 H 0 V 0.00 Z" fill="#1c97f2"/><path d="M -10 76.03200000000001 S -337.92 114.05&#xA;                0.00 76.03 337.92 130.03&#xA;                675.84 76.03 1013.76 116.03&#xA;                1351.68 76.03 1689.60 114.05&#xA;                2027.52 76.03 V 760.32 H 0 V 76.03 Z" fill="#1d8ae5"/><path d="M -10 152.06400000000002 S -337.92 102.06&#xA;                0.00 152.06 337.92 114.05&#xA;                675.84 152.06 1013.76 99.06&#xA;                1351.68 152.06 1689.60 94.06&#xA;                2027.52 152.06 V 760.32 H 0 V 152.06 Z" fill="#1e7dd8"/><path d="M -10 228.09600000000003 S -337.92 266.11&#xA;                0.00 228.10 337.92 266.11&#xA;                675.84 228.10 1013.76 282.10&#xA;                1351.68 228.10 1689.60 266.11&#xA;                2027.52 228.10 V 760.32 H 0 V 228.10 Z" fill="#1f70cb"/><path d="M -10 304.12800000000004 S -652.00 266.11&#xA;                0.00 304.13 337.92 266.11&#xA;                675.84 304.13 1013.76 244.13&#xA;                1351.68 304.13 1689.60 266.11&#xA;                2027.52 304.13 V 760.32 H 0 V 304.13 Z" fill="#2063be"/><path d="M -10 380.1600000000001 S -337.92 448.16&#xA;                0.00 380.16 337.92 418.18&#xA;                675.84 380.16 1013.76 418.18&#xA;                1351.68 380.16 1689.60 418.18&#xA;                2027.52 380.16 V 760.32 H 0 V 380.16 Z" fill="#2156b1"/><path d="M -10 456.19200000000006 S -337.92 418.18&#xA;                0.00 456.19 337.92 399.19&#xA;                675.84 456.19 1013.76 396.19&#xA;                1351.68 456.19 1379.52 418.18&#xA;                2027.52 456.19 V 760.32 H 0 V 456.19 Z" fill="#2249a4"/><path d="M -10 532.224 S -337.92 570.24&#xA;                0.00 532.22 414.00 570.24&#xA;                675.84 532.22 1013.76 600.22&#xA;                1351.68 532.22 1689.60 590.22&#xA;                2027.52 532.22 V 760.32 H 0 V 532.22 Z" fill="#233c97"/><path d="M -10 608.2560000000001 S -337.92 570.24&#xA;                0.00 608.26 337.92 570.24&#xA;                675.84 608.26 1013.76 550.26&#xA;                1351.68 608.26 1689.60 536.26&#xA;                2027.52 608.26 V 760.32 H 0 V 608.26 Z" fill="#242f8a"/><path d="M -10 684.2880000000001 S -337.92 722.30&#xA;                0.00 684.29 337.92 722.30&#xA;                675.84 684.29 1044.84 738.29&#xA;                1351.68 684.29 1689.60 749.29&#xA;                2027.52 684.29 V 760.32 H 0 V 684.29 Z" fill="#25227d"/></svg>